# xmcd
#
# Track frame offsets:
# 150
# 16029
# 27466
# 42678
# 57892
# 75228
# 98030
# 111522
# 127895
# 148732
# 164365
# 181377
# 197296
# 211436
#
# Disc length: 3024 seconds
#
#
# Revision: 0
# Processed by: cddbd v1.4PL0 Copyright (c) Steve Scherf et al.
# Submitted via: FreeRIP 2.35 
#
DISCID=b90bce0e
DTITLE=Tintin og Hårtørrerne - Tolv-tretten tøre hårtørrer-træffere
DYEAR=1900
DGENRE=
TTITLE0=Columbian blend(Kaffe!)
TTITLE1=Play that jive
TTITLE2=Dyrehospitalet
TTITLE3=Back to my plow
TTITLE4=Meat
TTITLE5=Talking 'bout the weather
TTITLE6=Minding my own business
TTITLE7=Baby's back
TTITLE8=King of the jukebox
TTITLE9=Girl with curly hair
TTITLE10=Be cool
TTITLE11=Collage 2/Bye bye Betty
TTITLE12=Live jive at five, Clive
TTITLE13=Party's over
EXTD=
EXTT0=
EXTT1=
EXTT2=
EXTT3=
EXTT4=
EXTT5=
EXTT6=
EXTT7=
EXTT8=
EXTT9=
EXTT10=
EXTT11=
EXTT12=
EXTT13=
PLAYORDER=
